<?xml version="1.0" standalone="no"?>
<!DOCTYPE svg PUBLIC "-//W3C//DTD SVG 1.1//EN" "http://www.w3.org/Graphics/SVG/1.1/DTD/svg11.dtd" >
<!--
2013-9-30: Created.
-->
<svg>
<metadata>
Created by iconfont
</metadata>
<defs>

<font id="iconfont" horiz-adv-x="1024" >
  <font-face
    font-family="iconfont"
    font-weight="500"
    font-stretch="normal"
    units-per-em="1024"
    ascent="896"
    descent="-128"
  />
    <missing-glyph />
    
    <glyph glyph-name="hwsj_app_40_dbzy" unicode="&#59001;" d="M982.016 808.448h-467.968c-23.04 0-41.984-18.944-41.984-41.984v-429.568h-33.28c-34.816 0-63.488-28.672-63.488-63.488v-86.528l-138.752 147.968a24.3712 24.3712 0 0 1-6.144 22.016l31.744 144.896h40.448a24.576 24.576 0 0 1 0 49.152l-56.32-1.536-8.192 6.656 4.608 4.608H302.08a24.576 24.576 0 0 1 0 49.152H242.688c-10.752 0-20.992-3.584-28.672-10.752l-17.408-15.36a37.376 37.376 0 0 1-12.8-28.16c0-10.752 4.608-20.992 13.312-28.16l17.408-14.848h0.512l-31.232-142.848c-7.168-2.56-12.8-7.68-15.36-15.36l-8.192-27.648c-3.072-9.728 0.512-19.968 8.704-26.112l-6.656-31.232c-3.584 0-7.168 1.024-10.752 1.024-64 0-123.392-37.376-150.528-95.744l11.776-5.632c-8.192-18.944-12.8-38.4-12.8-59.392 0-82.944 67.584-150.016 150.016-150.016s150.016 67.584 150.016 150.016c0 14.848-3.072 29.184-7.168 42.496l14.336 5.12a166.9632 166.9632 0 0 1-98.816 101.376l6.656 28.16 134.656-143.872c6.656-7.168 15.872-11.264 25.6-11.776v-0.512H610.816c-1.024-7.168-2.048-13.824-2.048-20.992 0-82.944 67.584-150.016 150.016-150.016s150.016 67.584 150.016 150.016c0 7.168-1.024 14.336-2.048 20.992h75.264c23.04 0 41.984 18.944 41.984 41.984V766.464c0 23.04-18.944 41.984-41.984 41.984zM150.528 8.192c-55.808 0-101.376 45.568-101.376 101.376 0 55.296 44.544 99.84 99.328 100.864l-22.016-99.84 47.616-10.24 21.504 99.328c32.768-16.896 55.808-50.688 55.808-90.112a100.864 100.864 0 0 0-100.864-101.376z m273.408 171.52v93.696c0 8.192 6.656 14.336 14.336 14.336h30.72V179.2h-45.056z m334.848-171.52c-55.808 0-101.376 45.568-101.376 101.376s45.568 101.376 101.376 101.376 101.376-45.568 101.376-101.376-45.568-101.376-101.376-101.376z m216.576 171.52H890.88c-25.088 47.616-74.752 80.384-132.096 80.384s-107.008-32.768-132.096-80.384h-105.984V759.808h454.144v-580.096z"  horiz-adv-x="1024" />

    
    <glyph glyph-name="hwsj_app_39_pm" unicode="&#58999;" d="M372.736 419.328c1.536-2.048 2.56-4.608 2.048-7.168l-9.216-84.48a41.5232 41.5232 0 0 1 41.472-50.688c7.168 0 13.824 2.048 17.92 5.632l82.944 38.4a11.264 11.264 0 0 0 8.192 0l77.824-35.328c14.336-10.752 34.304-10.752 48.64 0 13.824 9.728 19.968 26.624 15.872 43.008l-9.728 84.48c-0.512 2.56 0.512 5.632 2.048 7.68l60.416 70.656c11.776 10.752 16.896 27.648 11.776 43.52-5.12 15.36-18.432 26.624-34.304 28.16l-79.36 20.48a13.2608 13.2608 0 0 0-5.632 3.584l-55.296 79.36a39.8336 39.8336 0 0 1-36.352 22.528c-15.872 0-29.696-8.704-36.352-22.528L420.352 587.264c-1.024-1.536-3.072-3.072-5.12-3.584l-80.384-22.016a41.5744 41.5744 0 0 1-23.04-71.68l60.928-70.656z m57.856 107.008c15.872 4.096 29.184 13.824 38.4 27.136l43.008 61.44 43.008-61.44c9.216-13.312 23.04-23.04 38.4-27.136l57.856-15.872-45.056-52.224c-12.288-14.336-18.432-33.792-16.384-52.736l6.656-56.832-55.808 25.6c-18.432 8.704-39.936 8.704-57.856 0l-55.296-26.112 6.656 57.344c2.048 18.944-4.096 37.888-16.384 52.736l-45.056 52.224 57.856 15.872zM7.168 896v-1022.976l519.68 195.072L1016.832-128V896H7.168zM957.44-40.448l-430.08 172.032-460.8-173.056V836.608h890.88v-877.056z"  horiz-adv-x="1024" />

    
    <glyph glyph-name="hwsj_app_38_rlt" unicode="&#59000;" d="M340.992 771.584c-119.296 0-216.576-97.28-216.576-216.576s97.28-216.576 216.576-216.576 216.576 97.28 216.576 216.576-97.28 216.576-216.576 216.576z m0-373.248a156.4672 156.4672 0 0 0 0 312.832c86.016 0 156.672-70.144 156.672-156.16a156.672 156.672 0 0 0-156.672-156.672zM340.992 896C153.088 896 0 742.912 0 555.008s153.088-340.992 340.992-340.992 340.992 153.088 340.992 340.992S528.896 896 340.992 896z m0-621.568c-154.624 0-280.576 125.952-280.576 280.576s125.952 280.576 280.576 280.576 280.576-125.952 280.576-280.576-125.952-280.576-280.576-280.576zM340.992 616.96c-34.304 0-61.952-27.648-61.952-61.952 0-34.304 27.648-61.952 61.952-61.952 34.304 0 61.952 27.648 61.952 61.952 0 34.304-27.648 61.952-61.952 61.952zM807.424 305.152c-119.296 0-216.576-97.28-216.576-216.576S688.128-128 807.424-128 1024-30.72 1024 88.576s-97.28 216.576-216.576 216.576z m0-372.736c-86.016 0-156.16 70.144-156.16 156.16s70.144 156.16 156.16 156.16 156.16-70.144 156.16-156.16-70.144-156.16-156.16-156.16zM807.424 151.04c-34.304 0-61.952-27.648-61.952-61.952 0-34.304 27.648-61.952 61.952-61.952 34.304 0 61.952 27.648 61.952 61.952 0 33.792-27.648 61.952-61.952 61.952zM838.656 502.272c59.392 0 108.032 48.64 108.032 108.032a108.032 108.032 0 1 1-108.032-108.032z m0 155.648c26.112 0 47.616-21.504 47.616-47.616s-21.504-47.616-47.616-47.616-47.616 21.504-47.616 47.616 20.992 47.616 47.616 47.616z"  horiz-adv-x="1024" />

    
    <glyph glyph-name="hwsj_app_02_ssgy" unicode="&#58966;" d="M774.144 802.816H150.528L77.824 679.424V-128h868.864V662.528l-172.544 140.288z m110.08-868.864H139.776V662.528l46.592 78.336h565.76l132.608-107.52v-699.392zM681.3184 685.568l39.1168 48.128 152.4736-124.16-39.1168-48.0256zM156.16 896h183.808v-61.952H156.16z"  horiz-adv-x="1024" />

    
    <glyph glyph-name="hwsj_app_05_ljzz" unicode="&#58967;" d="M1022.976 568.832L512 896 1.024 568.832l33.28-52.224 75.776 48.64V-128h802.816V565.248l75.776-48.64 34.304 52.224z m-171.52-634.88H172.544V605.184L512 822.784l339.456-217.6v-671.232zM500.224 571.904a226.304 226.304 0 0 1-221.184-175.104l59.904-14.336a164.9152 164.9152 0 0 0 161.28 127.488c57.344 0 108.032-28.672 138.24-74.24l-26.624 7.168-15.872-59.904 117.76-31.232 31.232 117.76-59.904 15.872-2.048-7.168a224.768 224.768 0 0 1-182.784 93.696zM500.224 178.176c-58.88 0-111.616 30.72-141.312 78.848l27.136-7.168 15.872 59.904-117.76 31.744-31.744-117.76 59.904-15.872 1.536 6.144c41.472-59.392 109.568-97.28 185.856-97.28a226.304 226.304 0 0 1 221.184 175.104l-59.904 14.336a163.9424 163.9424 0 0 0-160.768-128z"  horiz-adv-x="1024" />

    
    <glyph glyph-name="hwsj_app_04_ljsy" unicode="&#58968;" d="M790.016-66.048H233.984V605.696l61.44 16.384 170.496 46.08 547.84 146.944-15.872 59.392-276.48-74.24-25.6 95.744-441.856-118.272 25.6-95.744L10.24 609.792l15.872-59.392 146.432 39.424V-128h678.912V689.152h-61.952v-755.2zM329.728 733.696l322.56 86.528 9.728-35.84-199.168-53.248-123.392-33.28-9.728 35.84zM573.44 324.608l100.864 100.864-100.864 100.864-43.52-43.52 26.624-26.624H445.44v-344.064h61.952V394.752h49.152l-26.624-26.624z"  horiz-adv-x="1024" />

    
    <glyph glyph-name="hwsj_app_09_ryjg" unicode="&#58969;" d="M893.952 390.144c39.936 31.232 66.048 79.36 66.048 133.632 0 94.208-76.8 170.496-170.496 170.496s-170.496-76.8-170.496-170.496c0-54.272 25.6-101.888 65.024-133.12-37.376-18.432-68.608-45.568-90.112-80.896a311.9616 311.9616 0 0 1-168.96 160.256c61.44 41.984 102.4 112.64 102.4 193.024C527.36 791.552 422.912 896 294.912 896S61.952 791.552 61.952 663.04c0-86.016 47.616-160.768 117.248-200.704-105.472-49.664-179.2-156.16-179.2-280.064V-128h1024v310.272c0 91.136-53.248 169.472-130.048 207.872z m-104.96 242.176a108.5952 108.5952 0 0 0 0-217.088 108.5952 108.5952 0 0 0 0 217.088z m-665.088 30.72c0 94.208 76.8 170.496 170.496 170.496s170.496-76.8 170.496-170.496S389.12 492.544 294.912 492.544s-171.008 76.8-171.008 170.496z m838.144-729.088H61.952v248.32c0 136.704 111.616 248.32 248.32 248.32a248.832 248.832 0 0 0 248.32-246.272v-136.704h61.952v134.656c0 101.888 68.608 170.496 170.496 170.496 94.208 0 170.496-76.288 170.496-170.496v-248.32z"  horiz-adv-x="1024" />

    
    <glyph glyph-name="hwsj_app_13_fltf" unicode="&#58970;" d="M683.52 816.128l-29.184-53.76 280.064-152.576-422.4-230.4-422.4 230.4 283.136 154.624-29.184 53.76-327.68-178.688-15.872-14.336V156.672l512-279.552 512 279.552V630.272l-340.48 185.856zM60.928 555.52l420.352-229.376v-362.496l-420.352 229.376V555.52z m481.792-591.872v362.496l420.352 229.376v-362.496l-420.352-229.376zM350.72 635.904L512 474.624l161.28 161.28-43.008 43.52-87.552-87.552V890.368H481.28v-298.496L393.728 679.424z"  horiz-adv-x="1024" />

    
    <glyph glyph-name="hwsj_app_01_ssdt" unicode="&#58971;" d="M858.624 495.616l39.424-47.616 60.416 50.688v-457.216l-310.272-92.672-342.016 102.4-240.64-90.112V440.32l119.808 45.056-22.016 57.856L4.096 483.328V-128l304.64 114.176 339.456-101.888 371.712 111.616V629.76zM512 121.344l224.256 378.88 2.048 3.584c24.064 52.224 45.056 104.96 30.72 175.104C743.936 805.376 635.904 896 512 896h-2.56C366.592 894.464 250.368 777.216 250.368 634.368c0-47.104 13.824-84.992 38.4-135.68L512 121.344zM509.952 834.56H512c93.184 0 177.664-71.68 197.12-167.424 10.24-51.712-5.12-91.136-26.112-137.216l28.16-12.8-28.16 12.8L512 242.176 341.504 529.92c-18.944 39.424-29.696 68.608-29.696 104.448 0 109.056 89.088 199.168 198.144 200.192z"  horiz-adv-x="1024" />

    
    <glyph glyph-name="hwsj_app_12_jcss" unicode="&#58972;" d="M751.104 656.896L512 896 272.896 656.896 512 418.304l239.104 238.592zM512 813.056l155.648-155.648L512 501.248 356.352 656.896 512 813.056zM272.896 111.104L512-128l239.104 239.104L512 349.696l-239.104-238.592zM512-45.056l-155.648 155.648L512 266.752l155.648-155.648L512-45.056zM239.104 623.104L0 384l239.104-239.104L477.696 384 239.104 623.104zM82.944 384l155.648 155.648L394.752 384l-155.648-155.648L82.944 384zM784.896 623.104L546.304 384l238.592-239.104L1024 384l-239.104 239.104zM629.248 384l155.648 155.648L941.056 384l-155.648-155.648L629.248 384z"  horiz-adv-x="1024" />

    
    <glyph glyph-name="hwsj_app_17_ljfl" unicode="&#58973;" d="M777.216-67.584H215.552V648.704H155.136V-128h682.496V648.704h-60.416zM681.984 771.584V896H310.784v-124.416H29.696v-60.416h964.096V771.584h-311.808z m-310.784 0V835.584h250.88v-64h-250.88zM656.384 318.464l24.576 92.16-44.544 11.776c-31.232 44.032-82.432 71.68-139.264 71.68-79.872 0-148.48-54.272-166.912-132.096l58.88-13.824c11.776 50.688 56.32 86.016 108.544 86.016 32.256 0 60.928-14.848 81.408-37.376l-14.336-53.76 91.648-24.576zM355.328 226.304c31.232-46.08 83.456-75.264 141.824-75.264 79.872 0 148.48 54.272 166.912 132.096l-58.368 13.824c-11.776-50.688-56.32-86.016-108.544-86.016-33.28 0-62.976 15.872-83.456 39.424l14.848 54.784-92.16 24.576-24.576-92.16 43.52-11.264z"  horiz-adv-x="1024" />

    
    <glyph glyph-name="hwsj_app_16_hwbj" unicode="&#58974;" d="M730.624 372.736l-423.936 3.072-13.312-3.072C115.2 288.256 0 106.496 0-90.112v-30.72h286.208v295.424H225.28v-233.984H62.464c10.752 158.72 107.008 302.592 251.392 373.76h397.312a454.3488 454.3488 0 0 0 251.392-373.76h-395.264v-60.928H1024v30.72c0 196.096-115.2 377.856-293.376 462.336zM450.56-59.392H324.608v-60.928h186.88v305.152H450.56zM713.216 577.536H542.72V888.32H481.28v-311.296H310.784v-185.344h402.944V577.536z m-60.928-124.416H371.712V516.096h280.576v-62.976z"  horiz-adv-x="1024" />

    
    <glyph glyph-name="hwsj_app_10_gcjg" unicode="&#58975;" d="M0 896v-868.352h1024V896H0z m963.584-808.448H60.416V835.584h903.68v-748.032zM252.416 290.304L323.584 522.24l71.168-231.936c4.096-12.8 15.36-21.504 28.672-21.504s25.088 8.704 28.672 21.504l100.352 325.632-57.344 17.408-71.168-231.936-71.68 231.936c-7.68 25.088-49.664 25.088-57.344 0L223.744 401.408l-71.68 231.936-57.344-17.92 100.352-325.632c7.168-25.088 49.664-25.088 57.344 0.512zM772.608 268.8c62.976 0 120.32 32.256 153.6 85.504l-51.2 31.744c-22.016-35.84-60.416-56.832-102.4-56.832-66.048 0-119.808 53.76-119.808 119.808v25.088c0 66.048 53.76 119.808 119.808 119.808 37.376 0 72.192-16.896 95.232-47.104l47.616 36.864a179.712 179.712 0 0 1-142.848 70.656c-99.328 0-180.224-80.896-180.224-180.224v-25.088c0-99.328 80.896-180.224 180.224-180.224zM276.48-67.584h463.872V-128H276.48z"  horiz-adv-x="1024" />

    
    <glyph glyph-name="hwsj_app_18_hwaj" unicode="&#58976;" d="M0-128h308.736V896H0v-1024zM60.416 835.584h188.416v-903.68H60.416V835.584zM357.376-128h308.736V896H357.376v-1024zM417.792 835.584h188.416v-903.68H417.792V835.584zM715.264 896v-1024H1024V896h-308.736z m248.32-963.584h-188.416V835.584h188.416v-903.168zM124.416 750.08h60.416v-373.248H124.416zM108.032 165.376h93.184v-60.416H108.032zM108.032 72.192h93.184v-60.416H108.032zM481.792 750.08h60.416v-373.248H481.792zM465.408 165.376h93.184v-60.416H465.408zM465.408 72.192h93.184v-60.416H465.408zM839.168 750.08h60.416v-373.248h-60.416zM822.784 165.376h93.184v-60.416h-93.184zM822.784 72.192h93.184v-60.416h-93.184z"  horiz-adv-x="1024" />

    
    <glyph glyph-name="hwsj_app_20_rwcq" unicode="&#58977;" d="M482.304 310.784H321.536v-59.392h380.928v59.392h-160.768V649.728h216.576L512 896 265.728 649.728h216.576v-338.944zM512 812.032l102.912-102.912H409.088L512 812.032zM660.48 502.784v-59.392h297.984v-512H65.536v512h309.248V502.784H6.144V-128h1011.712V502.784z"  horiz-adv-x="1024" />

    
    <glyph glyph-name="hwsj_app_15_flcz" unicode="&#58978;" d="M0 896v-1024h1024V896H0z m963.584-963.584H60.416V835.584h903.68v-903.168zM303.104 57.344H363.52V415.232h77.824V631.296H363.52V710.656H303.104v-79.36H225.28v-215.552h77.824v-358.4zM285.696 570.88h95.232v-95.232H285.696V570.88zM660.48 57.344h60.416v79.36h77.824v215.552h-77.824v358.4H660.48v-357.888h-77.824v-215.552h77.824v-79.872z m-17.408 235.008h95.232v-95.232h-95.232v95.232z"  horiz-adv-x="1024" />

    
    <glyph glyph-name="hwsj_app_21_rwgz" unicode="&#58979;" d="M0 673.28h60.416V835.584h162.304V896H0zM801.28 896v-60.416h162.304v-162.304H1024V896zM60.416 94.72H0V-128h222.72v60.416H60.416zM963.584-67.584h-162.304V-128H1024v222.72h-60.416zM517.632 638.976a254.976 254.976 0 0 1 0-509.952c140.8 0 255.488 114.176 255.488 254.976s-114.688 254.976-255.488 254.976z m0-449.536c-107.52 0-194.56 87.552-194.56 194.56s87.552 194.56 194.56 194.56 194.56-87.552 194.56-194.56-87.04-194.56-194.56-194.56z"  horiz-adv-x="1024" />

    
    <glyph glyph-name="hwsj_app_25_hz" unicode="&#58980;" d="M687.616 336.896l71.168 120.32-26.624 15.872-28.672 12.288-82.432-139.264a1122.816 1122.816 0 0 1-0.512 0l-112.128-188.928-111.616 188.416c22.016 2.56 44.032 4.608 67.072 6.144-23.04-1.024-45.568-3.072-67.584-5.632L313.856 486.4c-21.504 44.544-33.792 77.824-33.792 118.784 0 124.928 101.376 227.328 226.304 228.864h2.048c106.496 0 203.264-81.92 225.28-191.488 11.776-59.392-5.632-103.936-29.696-156.672l28.16-13.312 27.136-14.848 1.024 2.048c27.136 58.368 50.176 117.248 34.304 195.072C766.464 795.136 646.656 896 508.928 896h-3.072c-158.72-1.536-287.744-132.096-287.744-290.816 0-52.224 15.36-94.208 42.496-151.04l70.144-118.272C146.432 301.056 15.36 214.016 15.36 112.128 15.36-20.48 237.568-128 512-128s496.64 107.52 496.64 240.128c0 102.912-133.632 190.464-321.024 224.768zM512-96.768C255.488-96.768 47.616 4.096 47.616 128c0 93.184 117.248 173.056 284.16 206.848l177.664-299.52 178.176 300.544c169.472-33.28 289.28-114.176 289.28-208.384-0.512-123.904-208.384-224.256-464.896-224.256zM434.688 539.136V598.528h23.552v32.768h-23.552V684.032h30.72v32.256H370.176v-32.256h31.232v-52.736h-27.136v-32.768h27.136v-69.632c-12.8-4.096-24.064-7.168-33.792-9.728l8.192-33.28c26.624 9.216 60.416 19.968 91.136 30.208l-5.632 31.744-26.624-8.704zM570.368 626.688v24.064c5.12 11.264 9.728 22.016 13.824 32.768h60.928v34.304H476.16v-34.304h68.608c-18.944-48.128-48.128-93.184-81.408-120.832 8.192-6.656 22.016-20.992 27.648-28.672 14.848 14.848 29.696 32.768 43.52 52.736v-132.096h35.84V610.304c18.432-23.552 38.912-51.712 48.128-70.656l29.696 22.016c-12.288 21.504-38.912 54.272-59.904 78.336l-17.92-13.312z"  horiz-adv-x="1024" />

    
    <glyph glyph-name="hwsj_app_30_tfd" unicode="&#58981;" d="M0 896v-1024h1024V896H0z m963.584-963.584H60.416V835.584h903.68v-903.168zM388.608 324.096L266.752 385.024l438.784 222.72-280.064-331.776v-209.92h60.416v187.904l294.4 349.184-60.928-438.272-169.984 81.408-26.112-54.272 244.224-117.248 94.72 679.936L133.12 384.512l228.352-114.688z"  horiz-adv-x="1024" />

    
    <glyph glyph-name="hwsj_app_24_lz" unicode="&#58982;" d="M687.616 336.896l71.168 120.32-26.624 15.872-28.672 12.288-82.432-139.264a1122.816 1122.816 0 0 1-0.512 0l-112.128-188.928-111.616 188.416c22.016 2.56 44.032 4.608 67.072 6.144-23.04-1.024-45.568-3.072-67.584-5.632L313.856 486.4c-21.504 44.544-33.792 77.824-33.792 118.784 0 124.928 101.376 227.328 226.304 228.864h2.048c106.496 0 203.264-81.92 225.28-191.488 11.776-59.392-5.632-104.448-29.696-156.672l28.16-13.312 27.136-14.848 1.024 2.048c27.136 58.368 50.176 117.248 34.304 195.072C766.976 792.576 644.096 896 508.928 896h-3.072c-158.72-1.536-287.744-132.096-287.744-290.816 0-52.224 15.36-94.208 42.496-151.04l70.144-118.272C146.432 301.056 15.36 214.016 15.36 112.128 15.36-20.48 237.568-128 512-128s496.64 107.52 496.64 240.128c0 102.912-133.632 190.464-321.024 224.768zM512-96.768C255.488-96.768 47.616 4.096 47.616 128c0 93.184 117.248 173.056 284.16 206.848l177.664-299.52 178.176 300.544c169.472-33.28 289.28-114.176 289.28-208.384-0.512-123.904-208.384-224.256-464.896-224.256zM642.56 684.032H552.96l28.16 8.192c-3.584 12.288-9.216 31.232-15.36 45.568l-33.792-8.192c5.12-13.824 11.264-32.256 13.312-45.056H476.16v-34.304h166.4v33.792zM513.024 508.928l33.792 9.216c-2.56 30.208-11.264 81.92-20.48 121.344l-31.744-6.656c8.192-40.448 15.872-93.184 18.432-123.904zM471.04 561.152l-31.232-11.264V629.248h28.16v33.792h-28.16v66.56h-34.816v-66.56H373.76v-33.792h31.232V537.6c-13.824-4.096-26.112-8.704-36.352-11.264l11.776-36.352c28.672 11.264 64.512 25.6 97.792 39.424l-7.168 31.744zM626.688 635.392l-37.888 5.632c-4.096-43.52-13.824-101.376-23.552-140.288H462.336v-33.28h186.368v33.28h-50.688c10.752 37.376 21.504 89.6 28.672 134.656z"  horiz-adv-x="1024" />

    
    <glyph glyph-name="hwsj_app_22_khdj" unicode="&#58983;" d="M900.096 896c-68.608 0-123.904-55.808-123.904-123.904 0-23.04 6.656-44.032 17.408-62.464l-349.696-349.696 44.032-44.032 349.696 349.696c18.432-10.752 39.936-17.408 62.464-17.408 68.608 0 123.904 55.808 123.904 123.904C1024 840.192 968.192 896 900.096 896z m0-186.368c-34.304 0-61.952 27.648-61.952 61.952s27.648 61.952 61.952 61.952c34.304 0 61.952-27.648 61.952-61.952s-28.16-61.952-61.952-61.952zM868.864-66.048H61.952V740.864h530.944V802.816H0V-128h930.816V461.824h-61.952z"  horiz-adv-x="1024" />

    
    <glyph glyph-name="hwsj_app_31_jgqy" unicode="&#58984;" d="M808.448 447.488H1024L512 870.912 0 447.488h215.552v-491.52H37.888v-59.392h948.224v59.392h-178.176v491.52z m-59.392-491.52h-118.272v491.52h118.272v-491.52z m-177.664 491.52v-491.52H452.608v491.52h118.784zM512 794.112l347.136-287.744H164.864L512 794.112zM274.944 447.488h118.272v-491.52H274.944v491.52z"  horiz-adv-x="1024" />

    
    <glyph glyph-name="hwsj_app_23_wtzg" unicode="&#58985;" d="M768 827.392H256L0 384l256-443.392h512L1024 384l-256 443.392z m-34.304-826.88H290.304L69.12 384l221.696 383.488h442.88L954.88 384l-221.184-383.488zM512 583.168c-110.08 0-199.168-89.6-199.168-199.168s89.6-199.168 199.168-199.168 199.168 89.6 199.168 199.168S622.08 583.168 512 583.168z m0-59.392c66.56 0 122.368-47.104 136.192-109.568H375.808A139.9296 139.9296 0 0 0 512 523.776z m0-279.552c-66.56 0-122.368 47.104-136.192 109.568h272.384A139.9296 139.9296 0 0 0 512 244.224z"  horiz-adv-x="1024" />

    
    <glyph glyph-name="hwsj_app_29_jmxq" unicode="&#58986;" d="M11.264-97.28h93.184V585.728L11.264 492.544zM244.224 763.904h279.552v-31.232H244.224zM244.224 689.152h279.552v-31.232H244.224zM815.104 313.344h197.632l-300.544 424.96-80.384-113.664V896H135.68v-1024h496.128v161.792h49.664v-146.944h60.928v146.944h269.824l-197.12 279.552z m79.872 61.44h-122.88l-59.904 84.48-0.512-1.536-0.512 1.024-59.904-84.48h-121.344l182.784 258.048 182.272-257.536z m-324.096-441.856h-373.76V835.072h373.76v-294.4l-160.768-227.328H570.88v-52.224l-160.768-227.328H570.88v-100.864z m-40.96 162.304l181.76 257.024 27.136-38.4h1.536l154.624-218.624h-365.056z"  horiz-adv-x="1024" />

    
    <glyph glyph-name="hwsj_app_33_bj" unicode="&#58987;" d="M882.688-66.048H61.952V754.688h268.288V816.64H0V-128h944.64v330.24h-61.952zM308.5312 224.7168L891.8016 807.936l43.776-43.776L352.3584 180.8896zM929.28 848.5888l47.4112 47.4624 47.4624-47.4624-47.4624-47.4112z"  horiz-adv-x="1024" />

    
    <glyph glyph-name="hwsj_app_19_zhpj" unicode="&#58988;" d="M1001.984 435.712c19.456 15.872 26.624 41.472 18.944 65.536a60.416 60.416 0 0 1-53.248 41.984l-213.504 57.856c-16.384 4.608-30.72 14.848-40.96 28.672l-146.944 210.944c-9.216 21.504-29.696 35.328-53.76 35.328-24.064 0-44.544-13.824-53.76-35.328L311.296 630.272c-9.728-13.824-24.064-24.064-40.96-28.672L56.32 543.232c-25.088-1.536-45.568-17.408-53.248-41.472-7.68-24.064-0.512-49.152 18.944-65.536l161.28-187.904c13.312-15.36 19.456-35.84 17.408-55.808l-25.088-224.256c-6.656-24.576 2.048-49.664 23.04-65.024 11.776-8.192 24.576-12.288 36.864-12.288 11.264 0 21.504 3.072 29.696 9.216l216.576 100.352c19.456 9.216 41.984 9.216 61.952 0l211.456-97.28c22.016-15.872 50.176-15.872 71.68 0 20.992 15.36 29.696 40.448 23.04 65.024l-25.088 224.256c-2.048 19.968 4.096 40.448 16.896 55.808l160.256 187.392z m-206.336-147.968c-24.064-28.16-35.328-65.024-31.232-101.888l25.6-226.816-0.512-4.096 1.024-3.072-222.208 103.424a134.5024 134.5024 0 0 1-112.64 0l-216.576-100.352-6.144-2.048 26.624 232.96c4.096 36.864-7.168 73.728-31.232 101.888L65.536 477.696l-5.12 5.632 225.792 59.904c30.208 8.192 56.32 26.624 74.24 52.224l148.992 214.016-0.512 4.096 1.536 4.096 28.672 9.216-28.672-9.216 153.088-222.208c17.92-25.6 44.544-44.032 74.24-52.224l216.576-58.88 8.192-2.56-166.912-194.048zM463.36 329.728L387.072 405.504l-42.496-42.496 118.784-118.784 216.064 216.064-42.496 42.496z"  horiz-adv-x="1024" />

    
    <glyph glyph-name="hwsj_app_32_jrgk" unicode="&#58989;" d="M1024 89.6H0V896h1024v-806.4zM60.416 150.016h903.68V835.584H60.416v-685.568zM481.792 664.064h60.416v-342.016H481.792zM203.264 508.416h60.416v-186.368H203.264zM760.32 664.064h60.416v-186.368h-60.416zM279.04-67.584h466.432V-128H279.04z"  horiz-adv-x="1024" />

    
    <glyph glyph-name="hwsj_app_32_" unicode="&#58990;" d="M1024 617.984V896h-278.016v-171.008H278.016V896H0v-278.016h171.008v-468.48H0V-128h278.016v171.008h468.48V-128H1024v278.016h-171.008V617.984H1024z m-217.6 217.6h157.184v-157.184h-110.592v46.592h-46.592V835.584zM60.416 678.4V835.584h157.184v-110.592h-46.592v-46.592H60.416z m157.184-745.984H60.416v157.184h110.592v-46.592h46.592v-110.592z m745.984 157.184v-157.184h-157.184v110.592h46.592v46.592h110.592z m-171.008 60.416h-46.592v-46.592H278.016v46.592h-46.592V617.984h46.592v46.592h468.48v-46.592h46.592v-467.968z"  horiz-adv-x="1024" />

    
    <glyph glyph-name="hwsj_app_14_flsy" unicode="&#58991;" d="M588.8 772.608v-410.112h60.416V772.608l84.48-83.968 42.496 42.496L619.008 888.32 461.824 731.136l42.496-42.496zM588.8 211.456h60.416v-332.288H588.8zM331.776 211.456h60.416v-332.288H331.776zM866.816 459.264l-42.496-42.496 84.48-84.48H226.304a165.888 165.888 0 1 0 0 331.776 165.888 165.888 0 0 0 165.888-165.888c0-21.504-4.608-43.008-13.312-64l56.32-23.04c11.776 28.16 17.92 57.856 17.92 87.04 0 124.928-101.376 226.304-226.304 226.304C101.376 724.992 0 623.616 0 498.688s101.376-226.304 226.304-226.304h681.984l-84.48-84.48 42.496-42.496L1024 302.08l-157.184 157.184z"  horiz-adv-x="1024" />

    
    <glyph glyph-name="hwsj_pc_26_sygjt" unicode="&#58992;" d="M1014.272 422.912c0 16.384-12.8 29.696-29.184 30.72l-24.576 24.576c-4.096 4.096-10.752 1.024-10.752-4.608v-19.968h-91.648c-34.304 0-61.952-27.648-61.952-61.952v-411.136c0-25.6-20.992-46.592-46.592-46.592s-46.592 20.992-46.592 46.592V787.456C702.464 847.36 653.824 896 593.92 896S485.376 847.36 485.376 787.456v-806.912c0-25.6-20.992-46.592-46.592-46.592s-46.592 20.992-46.592 46.592V787.456a108.5952 108.5952 0 0 1-217.088 0v-411.136H19.968v-61.952h155.136c34.304 0 61.952 27.648 61.952 61.952V787.456c0 25.6 20.992 46.592 46.592 46.592s46.592-20.992 46.592-46.592v-806.912a108.5952 108.5952 0 0 1 217.088 0V787.456c0 25.6 20.992 46.592 46.592 46.592s46.592-20.992 46.592-46.592v-806.912a108.5952 108.5952 0 0 1 217.088 0V391.68h91.648v-19.968c0-5.632 6.656-8.192 10.752-4.608l24.576 24.576c16.384 1.536 29.696 14.336 29.696 31.232z"  horiz-adv-x="1024" />

    
    <glyph glyph-name="hwsj_app_37_kf" unicode="&#58993;" d="M235.008-108.544c-12.288 0-25.6 4.096-36.864 12.288-20.992 15.36-29.696 40.448-23.04 65.024l25.088 224.256c2.048 19.968-4.096 40.448-16.896 55.808L22.016 436.224c-19.456 15.872-26.624 40.96-18.944 65.536 7.68 24.064 28.16 39.936 53.248 41.472l214.528 58.368c16.384 4.608 31.232 14.848 40.96 28.672l146.944 210.944c9.216 21.504 29.696 35.328 53.76 35.328 24.064 0 44.544-13.824 53.76-35.328l146.944-210.944c9.728-13.824 24.064-24.064 40.96-28.672l213.504-57.856c25.088-1.536 45.568-17.92 53.248-41.984 7.68-24.064 0.512-49.664-18.944-65.536l-160.256-186.88c-13.312-15.36-19.456-35.84-16.896-55.808l25.088-224.256c6.656-24.576-2.048-49.664-23.04-65.024-22.016-15.872-50.176-15.872-71.68 0l-211.456 97.28c-19.456 9.216-41.984 9.216-61.952 0l-216.576-100.352c-8.192-6.656-18.944-9.728-30.208-9.728z m277.504 176.128c18.944 0 38.4-4.096 56.32-12.288l222.208-103.424-1.024 3.072 0.512 4.096-25.6 226.816c-4.096 36.864 7.168 73.728 31.232 101.888l167.424 194.048-8.192 2.56-216.576 58.88c-30.208 8.192-56.832 26.624-74.24 52.224L510.464 817.664l28.672 9.216-28.672-9.216-1.024-4.096 1.024-3.584-149.504-214.016c-17.92-25.6-44.544-44.544-74.752-52.736l-225.28-59.904 5.12-5.632 162.816-189.952c24.064-28.16 35.328-65.024 31.232-101.888l-26.624-232.96 6.144 2.048 216.576 100.352c17.92 8.192 36.864 12.288 56.32 12.288zM408.576 217.088h206.336v-60.416H408.576z"  horiz-adv-x="1024" />

    
    <glyph glyph-name="hwsj_app_36_dbgl" unicode="&#58994;" d="M512 896C229.888 896 0 666.112 0 384s229.888-512 512-512 512 229.888 512 512S794.112 896 512 896z m0-960.512c-247.296 0-448.512 201.216-448.512 448.512S264.704 832.512 512 832.512s448.512-201.216 448.512-448.512-201.216-448.512-448.512-448.512zM761.856 556.032c-16.384 26.112-50.688 62.976-80.384 89.6l-49.664-30.72c29.184-28.672 62.464-67.584 76.288-93.696l53.76 34.816zM392.192 645.12C358.4 561.152 300.032 479.232 239.616 427.52c11.776-16.384 30.72-51.712 36.864-67.584 20.48 17.92 39.424 39.424 58.368 62.976v-292.864h69.12V522.24c19.968 33.792 37.376 68.608 51.712 102.4l-63.488 20.48zM698.368 210.944c-44.544 5.632-74.24 88.064-89.6 211.968l161.792 22.528-9.728 62.464-158.72-20.48c-4.096 47.616-6.144 99.84-7.168 154.624H527.36c1.536-58.368 5.12-113.152 8.704-163.328l-112.64-14.848 9.728-64 110.08 14.848c19.968-169.984 64-274.944 158.208-283.648 31.232-1.536 61.44 24.064 75.264 131.584-12.288 6.656-41.984 23.552-54.272 37.888-4.608-62.976-11.264-90.624-24.064-89.6z"  horiz-adv-x="1024" />

    
    <glyph glyph-name="hwsj_app_03_ssjxzy" unicode="&#58995;" d="M512 896L68.608 640v-512L512-128l443.392 256V640L512 896z m0-71.168l381.952-220.672v-224.768l-351.232-202.752v38.4H481.28v-37.888l-351.232 202.752V604.672L512 824.832zM130.048 308.736l351.232-202.752v-145.408l-351.232 202.752v145.408z m412.672-348.16v145.408l351.232 202.752v-145.408l-351.232-202.752zM512 334.848c93.184 0 168.96 75.776 168.96 168.96s-75.776 168.96-168.96 168.96-168.96-75.776-168.96-168.96 75.776-168.96 168.96-168.96z m0 276.48a107.52 107.52 0 1 0 0-215.04 107.52 107.52 0 0 0 0 215.04z"  horiz-adv-x="1024" />

    
    <glyph glyph-name="hwsj_app_34_gl" unicode="&#58996;" d="M0 397.312h486.4V883.712H0v-486.4zM59.392 824.32h367.104v-367.104H59.392V824.32zM0-128h486.4v486.4H0V-128z m59.392 427.008h367.104v-367.104H59.392v367.104zM1024 640.512L768.512 896l-255.488-255.488 255.488-255.488L1024 640.512z m-255.488 171.52l171.52-171.52-171.52-171.52-171.52 171.52 171.52 171.52zM525.312-128h486.4v486.4h-486.4V-128z m59.392 427.008h367.104v-367.104h-367.104v367.104z"  horiz-adv-x="1024" />

    
    <glyph glyph-name="hwsj_app_27_sysj" unicode="&#58997;" d="M1024 583.68V896H0v-1024h1024v473.088h-60.416v-412.672H60.416V835.584h903.168V583.68zM169.984 724.992h559.616v-60.416H169.984zM169.984 524.288h310.784v-60.416H169.984zM871.424 485.376c0 20.48-16.896 37.376-37.376 37.376-20.48 0-36.864-16.384-37.376-36.864l-209.92-313.856-114.688 114.688v1.024c0 25.6-20.992 46.592-46.592 46.592h-1.024l-3.072 3.584-4.096-5.12c-21.504-4.096-38.4-22.016-38.4-45.056v-1.024l-181.248-217.6a35.84 35.84 0 0 1-14.336-28.672c0-20.48 16.896-37.376 37.376-37.376 20.48 0 37.376 16.896 37.376 37.376 0 2.048-1.024 3.584-1.024 5.632l163.328 196.096c2.048 0 3.584-1.024 5.12-1.024 2.048 0 3.584 1.024 5.632 1.024l128.512-128.512c3.584-10.752 12.288-19.456 23.04-23.04l13.312-13.312 8.704 13.312c15.36 4.608 27.136 18.432 27.136 35.328 0 1.536-0.512 2.56-1.024 4.096l214.528 321.024c15.36 4.608 26.112 17.92 26.112 34.304z"  horiz-adv-x="1024" />

    
    <glyph glyph-name="hwsj_app_28_ljlxt" unicode="&#58998;" d="M519.68 335.872a78.848 78.848 0 0 1 0 157.696c-32.256 0-59.904-19.456-72.192-47.104H0v-62.976h447.488c12.288-28.16 39.936-47.616 72.192-47.616zM929.28 29.696c-32.256 0-59.904-19.456-72.192-47.104H368.64v52.224h156.672V209.92h87.552c14.848-71.68 78.336-125.952 154.112-125.952 87.04 0 157.696 70.656 157.696 157.696S854.016 399.36 766.976 399.36a157.184 157.184 0 0 1-154.112-125.952H462.848v-175.104H368.64v120.32H0v-62.976h305.664v-57.344H0v-62.976h305.664v-115.2h551.424a78.848 78.848 0 0 1 151.04 31.744c0 42.496-35.328 77.824-78.848 77.824z m-161.792 305.664c52.224 0 94.72-42.496 94.72-94.72s-42.496-94.72-94.72-94.72-94.72 42.496-94.72 94.72 42.496 94.72 94.72 94.72zM422.912 691.2h258.048a173.568 173.568 0 0 1 169.984-141.824c95.744 0 173.056 77.824 173.056 173.056S946.176 896 850.944 896c-84.992 0-155.136-61.44-169.984-141.824H359.936v-105.472H0v-62.976h422.912V691.2z m428.032 141.824c60.928 0 110.08-49.664 110.08-110.08s-49.664-110.08-110.08-110.08-110.08 49.664-110.08 110.08 49.152 110.08 110.08 110.08z"  horiz-adv-x="1024" />

    
    <glyph glyph-name="hwsj_pc_22_qjss" unicode="&#58951;" d="M1024.006425-85.099594l-197.648298 197.648298a471.904464 471.904464 0 1 1-42.900406-42.900406L981.106019-128zM63.343767 422.555208a408.575293 408.575293 0 1 0 408.575293-408.575294 408.575293 408.575293 0 0 0-408.575293 408.575294z"  horiz-adv-x="1026" />

    
    <glyph glyph-name="hwsj_pc_24_bf" unicode="&#58952;" d="M68.608 896v-1024l886.784 512L68.608 896z"  horiz-adv-x="1024" />

    
    <glyph glyph-name="hwsj_pc_23_fhsj" unicode="&#58953;" d="M398.336 583.168V810.496L0 412.672l398.336-398.336v232.96c284.16 0 483.328-90.624 625.664-289.792-56.832 284.16-227.328 568.832-625.664 625.664z"  horiz-adv-x="1024" />

    
    <glyph glyph-name="hwsj_pc_25_zt" unicode="&#58954;" d="M320 896H384v-1024H320zM640 896h64v-1024H640z"  horiz-adv-x="1024" />

    
    <glyph glyph-name="hwsj_pc_27_scd" unicode="&#58955;" d="M176.128 895.488H1024v-96.256H176.128zM320 399.872h-256v399.36h32.256V895.488H0v-96.256h32.256v-896l287.744 1.024v-31.744H1024v96.256H320v-32.256l-256-1.024v432.64h256v-32.256H1024V432.128H320v-32.256z"  horiz-adv-x="1024" />

    
    <glyph glyph-name="hwsj_pc_29_up" unicode="&#58956;" d="M970.752 101.376L512 560.128l-458.752-458.752L0 154.624l512 512 512-512-53.248-53.248z"  horiz-adv-x="1024" />

    
    <glyph glyph-name="hwsj_pc_26_qbqc" unicode="&#58957;" d="M60.385113 835.614887H869.955018v-187.296198h60.385113V896H0v-930.340131h247.681311V26.044982H60.385113V835.614887zM620.738492 678.511245A403.249738 403.249738 0 1 1 1023.476492 275.261508a403.249738 403.249738 0 0 1-402.738 403.249737z m0-745.602624a342.864625 342.864625 0 1 0 342.352887 342.352887 342.864625 342.864625 0 0 0-342.352887-342.352887zM764.025201 461.534229l-143.286709-143.286709-143.798447 143.286709-42.474274-42.474274 143.286709-143.798447-143.286709-143.286709 42.474274-42.474275 143.798447 143.286709 143.286709-143.286709 42.474275 42.474275-143.286709 143.286709 143.286709 143.798447-42.474275 42.474274z"  horiz-adv-x="1024" />

    
    <glyph glyph-name="hwsj_pc_31_left" unicode="&#58958;" d="M282.624-128l-53.248 53.248L688.128 384 229.376 842.752 282.624 896l512-512-512-512z"  horiz-adv-x="1024" />

    
    <glyph glyph-name="hwsj_pc_30_down" unicode="&#58959;" d="M512 101.376l-512 512 53.248 53.248L512 207.872l458.752 458.752L1024 613.376l-512-512z"  horiz-adv-x="1024" />

    
    <glyph glyph-name="hwsj_pc_33_gb" unicode="&#58960;" d="M1024 844.288L972.288 896 512 435.712 51.712 896 0 844.288 460.288 384 0-76.288 51.712-128 512 332.288 972.288-128 1024-76.288 563.712 384 1024 844.288z"  horiz-adv-x="1024" />

    
    <glyph glyph-name="hwsj_pc_34_sx" unicode="&#58961;" d="M960.999134 383.44125a450.579742 450.579742 0 1 0-59.327185 222.476944l-51.144126 13.808914-16.36612-59.838626 147.806522-39.380976 40.9153 147.806521-59.838626 15.854679-10.740267-40.403859A511.44125 511.44125 0 0 1 0.001024 383.44125a511.44125 511.44125 0 0 1 1022.882501 0z"  horiz-adv-x="1024" />

    
    <glyph glyph-name="hwsj_pc_28_zdy" unicode="&#58962;" d="M1022.941256 430.525926a42.452062 42.452062 0 0 1-37.848827 37.848826h-23.527649a63.933828 63.933828 0 0 0-62.910887 51.147063 405.084737 405.084737 0 0 1-15.855589 38.360297 51.147063 51.147063 0 0 0-7.160589 14.321178A63.933828 63.933828 0 0 0 887.91301 639.205942l12.786766 12.786766a42.963533 42.963533 0 0 1 2.557353 56.773239c-10.229413 11.763824-20.458825 23.527649-31.711179 34.268532s-22.504708 21.993237-34.780003 32.22265a42.452062 42.452062 0 0 1-51.147063 0l-9.206471-9.206471-9.206471-5.626177a63.422358 63.422358 0 0 0-78.255006-9.717942 489.477391 489.477391 0 0 1-53.704416 21.481766 63.422358 63.422358 0 0 0-38.871768 51.147063 41.429121 41.429121 0 0 0 0 15.855589V850.443311a43.475003 43.475003 0 0 1-42.452062 44.497945A511.470628 511.470628 0 0 1 460.323565 892.383903a41.940591 41.940591 0 0 1-34.780003-41.940592v-18.924413a64.445299 64.445299 0 0 0-46.543827-61.376475 413.779738 413.779738 0 0 1-51.147063-20.458826h-3.580294A62.910887 62.910887 0 0 0 255.735314 760.424481l-13.298236 13.298236a41.940591 41.940591 0 0 1-54.215887 5.114706l-5.626177-4.603235a508.401804 508.401804 0 0 1-61.376475-60.353534l-5.114706-5.626177a42.452062 42.452062 0 0 1 5.114706-54.727358l13.298236-14.321177a63.422358 63.422358 0 0 0 10.740883-75.697653 382.068559 382.068559 0 0 1-21.993237-54.727357 64.445299 64.445299 0 0 0-59.842063-40.91765H44.497945A41.940591 41.940591 0 0 1 2.557353 434.617691v-51.147063H0v-49.612651a41.940591 41.940591 0 0 1 41.940591-34.780003h18.924414a62.910887 62.910887 0 0 0 59.330593-41.429121 8.18353 8.18353 0 0 0 0-4.603235 424.009151 424.009151 0 0 1 20.970295-51.147063A64.445299 64.445299 0 0 0 134.516775 127.735314l-13.298236-12.786766a42.452062 42.452062 0 0 1-4.603236-51.147063 526.303276 526.303276 0 0 1 71.605888-71.605887 42.452062 42.452062 0 0 1 51.147063 0l9.206471 9.206471 7.160589 5.626177a64.445299 64.445299 0 0 0 71.605888 13.298236h3.580294a389.740618 389.740618 0 0 1 54.215887-22.504708 62.910887 62.910887 0 0 0 41.429121-59.842063v-18.412943a42.452062 42.452062 0 0 1 37.848826-42.452062 577.96181 577.96181 0 0 1 94.110596 0 42.452062 42.452062 0 0 1 37.848826 42.452062v18.924414a63.933828 63.933828 0 0 0 51.147063 62.399416c13.809707 5.114706 27.619414 10.740883 40.40618 16.878531a65.46824 65.46824 0 0 0 34.780002 10.229413 63.933828 63.933828 0 0 0 48.078239-21.481767l10.740883-10.740883a41.940591 41.940591 0 0 1 55.238828-4.091765l4.091765 3.068824a544.204748 544.204748 0 0 1 61.887946 61.887946l3.580295 4.603235a42.452062 42.452062 0 0 1 0 51.147063l-3.580295 3.068824-14.321177 12.275295a64.445299 64.445299 0 0 0-10.229413 77.232065 389.229148 389.229148 0 0 1 19.947355 47.566768 28.642355 28.642355 0 0 0 0 6.137648 64.445299 64.445299 0 0 0 59.330592 40.91765h18.412943a42.452062 42.452062 0 0 1 42.452062 40.40618 547.273572 547.273572 0 0 1 0 91.553242z m-250.109137-47.055298a260.85002 260.85002 0 0 0-146.2806-235.276489 271.590903 271.590903 0 0 0-115.080891-27.107943 258.292667 258.292667 0 0 0-185.152367 76.720594 251.132078 251.132078 0 0 0-51.147063 70.071476 255.735314 255.735314 0 0 0-12.786766 200.496486 252.66649 252.66649 0 0 0 62.910887 102.294126 268.52208 268.52208 0 0 0 102.294126 62.910887A260.85002 260.85002 0 0 0 511.470628 645.85506a263.918844 263.918844 0 0 0 185.152367-77.232065 267.499138 267.499138 0 0 0 62.399417-102.294125 259.315608 259.315608 0 0 0 13.809707-82.858242z"  horiz-adv-x="1024" />

    
    <glyph glyph-name="hwsj_pc_35_jz" unicode="&#58963;" d="M1024 415.744h-97.792a415.232 415.232 0 0 1-381.952 382.464V896H480.256v-97.792a415.232 415.232 0 0 1-382.464-382.464H0v-64h97.792a415.232 415.232 0 0 1 382.464-381.952V-128h64v97.792a414.72 414.72 0 0 1 381.952 381.952H1024z m-479.744-381.952v125.952H480.256v-125.952a351.744 351.744 0 0 0-318.464 317.952h126.464V415.744H161.792a351.744 351.744 0 0 0 318.464 318.464v-126.464h64V734.208a351.744 351.744 0 0 0 317.952-318.464h-125.952v-64h125.952a351.744 351.744 0 0 0-317.952-317.952z"  horiz-adv-x="1024" />

    
    <glyph glyph-name="hwsj_pc_32_right" unicode="&#58964;" d="M741.376-128l-512 512 512 512 53.248-53.248L335.872 384l458.752-458.752L741.376-128z"  horiz-adv-x="1024" />

    
    <glyph glyph-name="hwsj_pc_36_data" unicode="&#58965;" d="M744.96 810.496V888.32h-62.464v-77.824H341.504V888.32H279.04v-77.824H0v-930.816h1024V810.496z m-465.92-61.952v-77.312h62.464V748.544h340.992v-77.312h62.464V748.544h217.088v-171.008l-900.096-12.288V748.544zM61.952-58.368v563.2l900.096 12.288v-575.488z"  horiz-adv-x="1024" />

    
    <glyph glyph-name="hwsj_pc_01_xx" unicode="&#58930;" d="M0 861.184v-768h311.296l190.464-186.368 189.952 187.904H1024V861.184z m957.44-699.392H665.6l-163.84-161.28-163.328 161.28H66.56V793.6h890.88zM199.68 616.448h624.128v-66.56H199.68zM199.68 408.064h416.256v-66.56H199.68z"  horiz-adv-x="1024" />

    
    <glyph glyph-name="hwsj_pc_02_ltsx" unicode="&#58931;" d="M7.168 896l375.296-375.296v-487.424L624.64-128V520.704L999.936 896zM563.2 545.792v-563.2l-120.32 82.944V545.792L153.6 835.584h700.416zM699.392 442.368h317.44v-60.416h-317.44zM699.392 291.328h317.44v-60.416h-317.44zM699.392 140.288h317.44v-60.416h-317.44z"  horiz-adv-x="1024" />

    
    <glyph glyph-name="hwsj_pc_03_bzxx" unicode="&#58932;" d="M0 896v-1024h1024V896z m960-960H64V832h896zM480.256 15.872h64V624.128h239.616V688.128H240.128v-64h240.128v-608.256z"  horiz-adv-x="1024" />

    
    <glyph glyph-name="hwsj_pc_06_lkcz" unicode="&#58933;" d="M1024-83.968l-118.784 118.784A307.2 307.2 0 0 1 976.384 230.4 310.784 310.784 0 1 1 665.6-80.384a307.2 307.2 0 0 1 195.072 71.168L979.968-128zM417.28 230.4A248.832 248.832 0 1 0 665.6-18.432 248.832 248.832 0 0 0 417.28 230.4zM61.952 834.048h807.936v-295.424h62.464V896H0v-932.352h372.736v62.464H61.952V834.048z"  horiz-adv-x="1024" />

    
    <glyph glyph-name="hwsj_pc_07_jrzj" unicode="&#58934;" d="M279.04 107.52l512 509.44H1024V896h-279.04v-108.544h-465.92V896H0v-279.04h279.04V725.504h465.92V660.48l-512-512H0V-128h279.04v108.544h465.92V-128H1024v279.04h-279.04v-108.544h-465.92zM217.088 678.912h-153.6v153.6h153.6z m589.824-589.824h153.6v-153.6h-153.6z m0 744.96h153.6v-153.6h-153.6zM217.088-66.048h-153.6v153.6h153.6z"  horiz-adv-x="1024" />

    
    <glyph glyph-name="hwsj_pc_10_tjfx-09" unicode="&#58935;" d="M60.928 648.704h777.728v-62.976h60.928V709.632h-217.088V896H217.6v-186.368H0V25.6h153.6v-140.288h61.44V25.6h332.288v61.44h-486.4z m217.6 186.368h342.528v-125.44H278.528zM1024 322.048a232.448 232.448 0 1 1-263.168-229.376v-159.744h-77.824V-128h217.088v60.928h-77.824v159.744A231.424 231.424 0 0 1 1024 322.048z m-232.448-171.52a171.52 171.52 0 1 0 171.52 171.52 172.032 172.032 0 0 0-171.52-171.52zM791.552 445.44a123.904 123.904 0 1 1 123.904-123.392 123.904 123.904 0 0 1-123.904 123.392z m0-186.368a62.976 62.976 0 1 0 62.464 62.976 62.976 62.976 0 0 0-62.464-62.976zM217.088 306.176c0-22.528 27.648-41.472 61.952-41.472s61.952 18.944 61.952 41.472-27.648 41.472-61.952 41.472-61.952-18.432-61.952-41.472z"  horiz-adv-x="1024" />

    
    <glyph glyph-name="hwsj_pc_10_tjfx-10" unicode="&#58936;" d="M962.048 554.496v-465.408H61.952V834.048h636.416V896H0v-868.864h1024V554.496h-61.952zM15.36-66.048h992.768V-128H15.36zM640.512 450.048L455.68 604.16 153.6 259.584a46.592 46.592 0 1 1 47.104-46.08v4.608L460.8 517.632l187.392-156.16L921.6 713.216l55.296-37.376 32.256 204.8-186.368-102.4 47.616-32.768z"  horiz-adv-x="1024" />

    
    <glyph glyph-name="hwsj_pc_11_bj" unicode="&#58937;" d="M842.752-65.024V722.944H491.52a279.552 279.552 0 0 1-279.04-279.04v-508.928h-204.8V-128h1008.64v62.976zM275.456 443.904A216.576 216.576 0 0 0 491.52 659.456h288.256v-724.48H275.456zM17.1008 842.1376l44.544 44.544 125.952-126.0032-44.544-44.544zM7.68 596.48h125.952v-62.976H7.68zM307.2 896h62.976v-125.952H307.2zM607.232 409.088l-46.592 42.496-182.784-201.728h190.976l-143.36-163.328 47.104-41.472 235.008 268.288h-187.392l87.04 95.744z"  horiz-adv-x="1024" />

    
    <glyph glyph-name="hwsj_pc_12_lssj" unicode="&#58938;" d="M512 654.848a307.2 307.2 0 0 1-218.112-90.112v13.312H232.96v-123.904H358.4V515.072h-27.648a248.832 248.832 0 1 0-67.584-169.984h-61.44a310.272 310.272 0 1 1 310.272 307.2zM481.28 515.584v-196.608l99.328-132.096 49.152 36.864-87.04 115.712V515.584H481.28zM759.808 810.496V888.32h-60.928v-77.824h-373.76V888.32H264.192v-77.824H0v-930.816h1024V810.496z m204.8-870.4H60.928V749.056h204.8v-31.232h59.392v31.232h373.76v-31.232h60.928v31.232h204.8z"  horiz-adv-x="1024" />

    
    <glyph glyph-name="hwsj_pc_14_zh" unicode="&#58939;" d="M778.24 467.456V742.4L512 896 245.76 742.4v-274.944L13.824 332.8v-307.2l266.752-153.6L512 5.632 743.424-128l266.752 153.6v307.2z m-266.24 358.4l204.8-118.784v-235.008l-204.8-118.272-204.8 118.272V707.072zM74.752 60.928v237.568l204.8 117.248 199.168-115.2v-244.736l-198.144-113.664z m874.496 0l-204.8-118.784-196.608 113.664v244.736l199.168 115.2 204.8-117.248z"  horiz-adv-x="1024" />

    
    <glyph glyph-name="hwsj_pc_16_rgbj" unicode="&#58940;" d="M865.28-121.344H1024L888.832 521.216h-256V889.344H390.144v-368.128h-256L0-121.344h311.808V276.48H252.416v-337.92h-179.2L183.296 461.824h657.408l110.08-523.264H865.28zM449.536 521.216v307.2h124.928v-307.2zM730.112-61.44H604.16v-59.392h185.344V276.48h-59.392v-337.92zM482.304-61.44h-117.76v-59.392h177.152V276.48H482.304v-337.92z"  horiz-adv-x="1024" />

    
    <glyph glyph-name="hwsj_pc_04_cj" unicode="&#58941;" d="M757.76 182.272L310.272 629.76V896H0v-310.272h266.24l447.488-447.488V-128H1024v310.272zM61.952 834.048h186.368v-186.368H61.952z m900.096-900.096h-186.368v186.368h186.368z"  horiz-adv-x="1024" />

    
    <glyph glyph-name="hwsj_pc_05_qycc" unicode="&#58942;" d="M310.272 896v-168.448L0 541.184v-514.048h61.952V505.856l310.272 186.368V834.048h589.824v-527.872H1024V896H310.272zM341.504 554.496H279.552v-185.856H123.904v-62.464h217.6V554.496zM248.32 182.272a153.6 153.6 0 1 1 153.6-186.368h63.488v62.464H400.384a153.6 153.6 0 0 1-152.064 123.904z m0-248.32A93.184 93.184 0 1 0 341.504 25.6a93.696 93.696 0 0 0-93.184-91.648zM992.768 151.04a248.32 248.32 0 1 1-247.808-247.808 244.736 244.736 0 0 1 151.04 51.2L978.944-128l43.52 43.52-82.432 84.48a244.736 244.736 0 0 1 52.736 151.04z m-434.176 0a186.368 186.368 0 1 0 186.368-185.856 186.368 186.368 0 0 0-186.368 185.856z"  horiz-adv-x="1024" />

    
    <glyph glyph-name="hwsj_pc_15_jxzy" unicode="&#58943;" d="M653.352029 523.774045m-61.439816 0a61.439816 61.439816 0 1 1 122.879631 0 61.439816 61.439816 0 1 1-122.879631 0ZM985.639032 696.317527L890.407318 742.397389l-35.839893 99.327702a69.119793 69.119793 0 0 1-88.063736 40.959877L667.175987 844.797082 571.944273 889.340948a68.095796 68.095796 0 0 1-91.135727-32.767902l-44.543866-95.743712-98.815704-35.839893a69.119793 69.119793 0 0 1-41.471875-88.063736L332.328992 537.598003l-44.543867-95.231714a68.607794 68.607794 0 0 1 0-51.199846 69.631791 69.631791 0 0 1 16.89595-26.111922L57.385817 179.199078l-5.119985-5.119984A175.615473 175.615473 0 0 1 1.577984 25.599539a175.615473 175.615473 0 0 1 55.807833-102.399693 175.615473 175.615473 0 0 1 83.455749-44.031868h8.191976a169.471492 169.471492 0 0 1 27.647917-3.07199 177.151469 177.151469 0 0 1 110.079669 38.911883h3.071991a176.63947 176.63947 0 0 1 18.943943 11.775965v3.07199a139.775581 139.775581 0 0 1 14.335957 16.89595l166.399501 221.695335a68.095796 68.095796 0 0 1 51.199847 0l99.327702 35.839892 95.231714-44.543866a68.607794 68.607794 0 0 1 91.135727 33.2799L871.975373 286.718756l98.815703 36.351891a68.095796 68.095796 0 0 1 38.911884 35.327894 69.631791 69.631791 0 0 1 2.559992 51.199846L974.375066 509.950086l44.543866 95.231714a68.607794 68.607794 0 0 1-33.2799 91.135727zM398.376794 381.438472L580.136248 588.79785a102.399693 102.399693 0 0 0 31.743905 22.015934 92.671722 92.671722 0 0 0 37.375888 8.191975 102.399693 102.399693 0 0 0 36.351891-6.65598 93.18372 93.18372 0 0 0 51.199846-51.199846 96.255711 96.255711 0 0 0-18.431944-107.519678l-227.327318-201.215396-37.375888-32.767902-179.199463-237.567287a108.543674 108.543674 0 0 0-19.96794-20.991937l-3.583989-3.58399a117.759647 117.759647 0 0 0-95.743713-23.03993 114.687656 114.687656 0 0 0-51.199846 27.135918 114.687656 114.687656 0 0 0-40.447879 69.631791v12.799962A116.73565 116.73565 0 0 0 93.737708 127.999232l250.879247 189.95143 54.271837 60.927817z m566.270301 249.343252l-55.295834-118.271646 44.543866-122.367632a8.191975 8.191975 0 0 0 0-6.143982 9.215972 9.215972 0 0 0-5.119985-4.607986l-122.367632-46.59186L769.57568 217.086965a8.191975 8.191975 0 0 0-11.263966-4.095988l-118.271645 54.783836-71.679785-26.111922 190.463428 168.447495a148.479555 148.479555 0 0 1 37.887887 59.391821 156.67153 156.67153 0 0 1-96.255712 199.679401 153.599539 153.599539 0 0 1-119.80764-6.65598 150.527548 150.527548 0 0 1-46.59186-34.303897L343.080959 409.086389a6.65598 6.65598 0 0 0 0 6.143981l54.271838 119.807641-44.543867 122.367633A8.191975 8.191975 0 0 0 359.976909 668.157612l122.367633 44.543866 54.783835 118.271645a8.191975 8.191975 0 0 0 7.679977 4.607986h3.58399L667.175987 779.773277l122.367633 44.543866a8.191975 8.191975 0 0 0 10.751968-5.119985l44.543866-122.367632L960.551107 639.997696a9.215972 9.215972 0 0 0 4.095988-9.215972z"  horiz-adv-x="1025" />

    
    <glyph glyph-name="hwsj_pc_18_qyzz" unicode="&#58944;" d="M1024 896h-307.2v-307.2h123.904v-531.968H464.384v279.552H195.584V588.8H307.2V896H0v-307.2h135.168v-250.88H0V-128h464.384v124.416h435.2V588.8H1024zM60.416 835.584h188.416v-188.416H60.416z m343.552-903.168H60.416v343.552h343.552z m559.616 716.8h-188.416V835.584h188.416zM275.456 214.016l-50.176-33.792 4.608-6.656H131.072v-60.416h212.48l-68.096 100.864zM244.736 28.672l-8.704 12.288h97.28v59.904H119.296l76.288-107.008 49.152 34.816z"  horiz-adv-x="1024" />

    
    <glyph glyph-name="hwsj_pc_19_GIS" unicode="&#58945;" d="M674.304 763.904L1017.856 896v-876.032l-376.32-136.192-296.448 122.88L6.144-128V753.152L349.696 885.248m32.768-825.344l259.072-107.52V709.12l-259.072 107.52z m322.56 647.68v-743.936l249.856 98.816V803.84z m-635.904 0v-741.888l249.856 98.816V805.888zM348.16 40.96z"  horiz-adv-x="1024" />

    
    <glyph glyph-name="hwsj_pc_08_gjhf" unicode="&#58946;" d="M931.84 150.016H92.16a31.744 31.744 0 0 0-31.744 29.184v96.256a31.744 31.744 0 0 0 31.744 31.744h256a371.712 371.712 0 1 1-68.096 216.576 363.52 363.52 0 0 1 34.816-156.16H92.16a92.672 92.672 0 0 1-92.16-92.16V179.2a92.672 92.672 0 0 1 92.16-92.16h839.68a32.256 32.256 0 0 0 31.744-32.256v-124.928h-716.8V-128H1024v185.344a92.672 92.672 0 0 1-92.16 92.672zM651.776 835.584a311.808 311.808 0 1 0-311.808-311.808 311.808 311.808 0 0 0 311.808 311.808zM559.616 684.032v-320l276.992 159.744z m60.416-102.4L716.8 523.776l-96.768-55.296z"  horiz-adv-x="1024" />

    
    <glyph glyph-name="hwsj_pc_17_gcbj" unicode="&#58947;" d="M184.32 173.056l95.232 310.272 95.744-310.272a29.696 29.696 0 0 1 57.344 0l124.416 403.968-57.344 17.92-95.744-310.272L307.2 594.944a31.232 31.232 0 0 1-57.344 0L153.6 284.672 59.904 594.944 0 577.024l124.416-403.968a31.744 31.744 0 0 1 59.904 0zM972.8 286.208a156.672 156.672 0 0 0-291.84 82.432v30.72a156.16 156.16 0 0 0 280.576 95.232l47.616 36.864a216.064 216.064 0 0 1-388.096-132.096v-30.72A216.576 216.576 0 0 1 1024 254.464zM155.136 835.584h716.8v-94.208h60.416V896H94.72v-154.624h60.416V835.584zM871.936-67.584h-716.8v94.208H94.72V-128h837.632v154.624h-60.416v-94.208z"  horiz-adv-x="1024" />

    
    <glyph glyph-name="hwsj_pc_21_clcx" unicode="&#58948;" d="M1024.006425-85.099594l-197.648298 197.648298a471.904464 471.904464 0 1 1-42.900406-42.900406L981.106019-128zM63.343767 423.065927a408.575293 408.575293 0 1 0 408.575293-408.575294 408.575293 408.575293 0 0 0-408.575293 408.575294zM411.143485 353.608127a138.9156 138.9156 0 0 1 15.832293 92.44016 139.426319 139.426319 0 0 1-276.809761-24.514518 159.855083 159.855083 0 0 1 20.428764-72.011395l119.508274-201.223332 120.018992 204.287647z m-51.071911 26.046675l-66.393486-112.358206-68.436361 111.847487a98.05807 98.05807 0 0 0-12.257259 42.389686 79.161463 79.161463 0 0 0 78.140025 79.161463A82.225778 82.225778 0 0 0 369.775237 433.791028 83.757935 83.757935 0 0 0 360.071574 379.654802zM675.185268 695.279216a74.564991 74.564991 0 0 1-73.543552-74.054272 84.779373 84.779373 0 0 1 10.725101-38.303934l63.32917-106.740295 62.307733 105.208138 3.064314 5.107191a74.564991 74.564991 0 0 1 7.150068 48.007597 78.140025 78.140025 0 0 1-73.032834 60.775575z m11.235821-82.736497l-10.725102-17.875169-9.192944 17.36445a24.514518 24.514518 0 0 0-3.064314 9.192944 13.278697 13.278697 0 0 0 13.278697 13.278697 14.300135 14.300135 0 0 0 13.278697-12.257259s-0.510719-3.064315-3.575034-9.703663zM660.374414 472.605681l-36.261057 48.518316-151.172859-111.336767 147.087106-164.451556-306.942189-108.783172 19.918045-57.200541 392.232282 138.9156-162.919398 182.326725 98.05807 72.011395z"  horiz-adv-x="1026" />

    
    <glyph glyph-name="hwsj_pc_20_sp" unicode="&#58949;" d="M1005.568 621.056a19.968 19.968 0 0 1-11.776-3.584L870.4 533.504V640a64 64 0 0 1-66.56 64H67.584A64 64 0 0 1 3.584 640v-512a64 64 0 0 1 64-64H803.84A64 64 0 0 1 870.4 128v106.496l125.952-83.968a19.968 19.968 0 0 1 11.776-3.584 22.016 22.016 0 0 1 22.016 22.016V599.04a22.016 22.016 0 0 1-24.576 22.016zM819.2 128a12.8 12.8 0 0 0-12.8-12.8H67.584a12.8 12.8 0 0 0-12.8 12.8V640a12.8 12.8 0 0 0 12.8 12.8H803.84A12.8 12.8 0 0 0 819.2 640z m159.744 95.744L886.784 281.6V486.4l89.6 59.392zM197.12 535.552m-64 0a64 64 0 1 1 128 0 64 64 0 1 1-128 0Z"  horiz-adv-x="1030" />

    
    <glyph glyph-name="hwsj_pc_13_tcd" unicode="&#58950;" d="M837.421807 895.74304H527.227666v-682.324736h62.448325V523.612445h247.745816a186.321233 186.321233 0 1 1 0 372.130595z m0-310.194141h-247.745816V833.806587h247.745816a124.384779 124.384779 0 1 0 0-248.257688zM868.64597-66.063546h-63.98394V-128h125.920394v217.545396h-61.936454v-155.608942zM61.936454 554.324736H0V-128h707.918313v61.936454H61.936454V554.324736zM61.936454 740.64597h139.740925V802.582424H0v-104.933662h61.936454v42.997208z"  horiz-adv-x="1033" />

    


  </font>
</defs>
</svg>
